<?xml version="1.0" encoding="UTF-8"?>
<svg width="190px" height="100px" viewBox="0 0 190 100" version="1.1" xmlns="http://www.w3.org/2000/svg" xmlns:xlink="http://www.w3.org/1999/xlink">
    <title>2-Inline-buttons-with-icons</title>
    <g id="2-Inline-buttons-with-icons" stroke="none" stroke-width="1" fill="none" fill-rule="evenodd">
        <g id="Group-2" transform="translate(10.000000, 36.000000)">
            <rect id="Rectangle" stroke="#596167" stroke-width="10" x="-5" y="-5" width="80" height="38" rx="3.5"></rect>
            <rect id="Rectangle" fill="#596167" x="8" y="11" width="39" height="6" rx="3"></rect>
            <g id="Group" transform="translate(53.507927, 5.543927)" fill="#596167" stroke="#596167">
                <path d="M1.64264737,2.91209827 L9.60945285,2.96338037 C10.139696,2.96680129 10.6193194,3.18301351 10.9672372,3.5309313 C11.315155,3.87884909 11.5313672,4.35847245 11.5347881,4.88871565 C11.5381752,5.41371916 11.328442,5.89039354 10.9866111,6.23666382 C10.6447802,6.5829341 10.1708516,6.79880028 9.64262233,6.8021978 L9.64262233,6.8021978 L1.67259844,6.75090535 C1.14235524,6.74748442 0.662731877,6.5312722 0.314814087,6.18335441 C-0.0331037027,5.83543662 -0.249315923,5.35581326 -0.252736847,4.82557006 C-0.256123967,4.30056655 -0.0463907091,3.82389217 0.295440206,3.47762189 C0.637271122,3.13135162 1.1111997,2.91548544 1.64264737,2.91209827 L1.64264737,2.91209827 Z" id="Rectangle" transform="translate(5.641026, 4.857143) rotate(-315.000000) translate(-5.641026, -4.857143) "></path>
                <path d="M9.88443718,8.87916979 C10.4094407,8.87578268 10.8861151,9.08551593 11.2323853,9.42734685 C11.5786556,9.76917776 11.7945218,10.2431063 11.7979094,10.7744889 C11.7945121,11.313169 11.5791521,11.7949752 11.2345326,12.1439563 C10.8860101,12.4968898 10.4047891,12.7145432 9.87257364,12.7179768 L9.87257364,12.7179768 L1.92385569,12.7692589 C1.39885217,12.772646 0.922177799,12.5629127 0.57590752,12.2210818 C0.229637242,11.8792509 0.0137710625,11.4053223 0.0103834809,10.8739398 C0.0137807752,10.3352597 0.229140717,9.85345346 0.573760251,9.50447238 C0.92228277,9.1515389 1.40350373,8.93388549 1.93571923,8.93045185 L1.93571923,8.93045185 Z" id="Rectangle" transform="translate(5.904146, 10.824214) rotate(-225.000000) translate(-5.904146, -10.824214) "></path>
            </g>
        </g>
        <g id="Group-2" opacity="0.648856027" transform="translate(110.000000, 36.000000)">
            <rect id="Rectangle" stroke="#596167" stroke-width="10" x="-5" y="-5" width="80" height="38" rx="3.5"></rect>
            <rect id="Rectangle" fill="#596167" x="8" y="11" width="39" height="6" rx="3"></rect>
            <g id="Group" transform="translate(53.507927, 5.543927)" fill="#596167" stroke="#596167">
                <path d="M1.64264737,2.91209827 L9.60945285,2.96338037 C10.139696,2.96680129 10.6193194,3.18301351 10.9672372,3.5309313 C11.315155,3.87884909 11.5313672,4.35847245 11.5347881,4.88871565 C11.5381752,5.41371916 11.328442,5.89039354 10.9866111,6.23666382 C10.6447802,6.5829341 10.1708516,6.79880028 9.64262233,6.8021978 L9.64262233,6.8021978 L1.67259844,6.75090535 C1.14235524,6.74748442 0.662731877,6.5312722 0.314814087,6.18335441 C-0.0331037027,5.83543662 -0.249315923,5.35581326 -0.252736847,4.82557006 C-0.256123967,4.30056655 -0.0463907091,3.82389217 0.295440206,3.47762189 C0.637271122,3.13135162 1.1111997,2.91548544 1.64264737,2.91209827 L1.64264737,2.91209827 Z" id="Rectangle" transform="translate(5.641026, 4.857143) rotate(-315.000000) translate(-5.641026, -4.857143) "></path>
                <path d="M9.88443718,8.87916979 C10.4094407,8.87578268 10.8861151,9.08551593 11.2323853,9.42734685 C11.5786556,9.76917776 11.7945218,10.2431063 11.7979094,10.7744889 C11.7945121,11.313169 11.5791521,11.7949752 11.2345326,12.1439563 C10.8860101,12.4968898 10.4047891,12.7145432 9.87257364,12.7179768 L9.87257364,12.7179768 L1.92385569,12.7692589 C1.39885217,12.772646 0.922177799,12.5629127 0.57590752,12.2210818 C0.229637242,11.8792509 0.0137710625,11.4053223 0.0103834809,10.8739398 C0.0137807752,10.3352597 0.229140717,9.85345346 0.573760251,9.50447238 C0.92228277,9.1515389 1.40350373,8.93388549 1.93571923,8.93045185 L1.93571923,8.93045185 Z" id="Rectangle" transform="translate(5.904146, 10.824214) rotate(-225.000000) translate(-5.904146, -10.824214) "></path>
            </g>
        </g>
    </g>
</svg>